<?xml version="1.0" standalone="no"?>
<!DOCTYPE svg PUBLIC "-//W3C//DTD SVG 20010904//EN"
 "http://www.w3.org/TR/2001/REC-SVG-20010904/DTD/svg10.dtd">
<svg version="1.0" xmlns="http://www.w3.org/2000/svg"
 width="500.000000pt" height="500.000000pt" viewBox="0 0 500.000000 500.000000"
 preserveAspectRatio="xMidYMid meet">
<metadata>
Created by potrace 1.10, written by Peter Selinger 2001-2011
</metadata>
<g transform="translate(0.000000,500.000000) scale(0.100000,-0.100000)"
fill="#1d359d" stroke="none">
<path d="M1645 4080 c-255 -25 -515 -138 -658 -289 -76 -80 -97 -126 -97 -221
0 -62 5 -85 29 -136 16 -34 34 -65 40 -68 23 -15 8 -24 -81 -56 -279 -97 -529
-271 -679 -472 -74 -99 -101 -171 -101 -265 0 -131 69 -232 209 -306 123 -64
247 -88 457 -88 312 0 554 78 772 247 110 86 177 163 226 261 36 72 41 91 45
170 4 78 2 93 -19 133 -40 78 -109 110 -238 110 -228 0 -497 -164 -587 -357
-43 -94 -40 -215 7 -258 21 -19 95 -36 117 -28 22 9 14 30 -16 43 -50 20 -65
45 -65 104 2 138 148 303 350 398 128 60 219 72 290 37 57 -27 79 -82 71 -172
-8 -87 -39 -162 -100 -240 -112 -144 -294 -261 -503 -321 -165 -47 -261 -60
-418 -53 -293 12 -434 116 -436 320 -1 261 296 573 671 706 l80 29 52 -28 c92
-50 222 -84 317 -84 146 0 250 53 250 128 0 47 -25 71 -89 85 -76 16 -257 13
-348 -5 -146 -30 -131 -32 -154 22 -31 68 -23 170 17 244 58 107 187 215 349
291 226 106 487 104 569 -4 47 -61 23 -168 -49 -223 -27 -21 -42 -24 -86 -22
-48 3 -54 1 -54 -16 0 -30 47 -41 113 -26 68 15 143 80 168 146 21 56 15 131
-15 173 -54 75 -209 109 -406 91z m-154 -730 c24 -14 25 -52 0 -74 -50 -46
-199 -38 -307 15 -35 18 -64 35 -64 40 0 4 21 11 48 14 26 4 52 8 57 10 25 8
248 4 266 -5z"/>
<path d="M3850 4044 c-14 -2 -56 -9 -95 -15 -108 -17 -287 -80 -420 -147 -295
-148 -513 -362 -683 -672 -96 -177 -141 -408 -110 -567 20 -104 57 -180 121
-250 94 -102 201 -153 369 -174 253 -33 614 77 918 279 105 70 220 179 220
210 0 39 -30 24 -119 -60 -242 -230 -521 -348 -821 -348 -192 0 -325 46 -431
147 -260 248 -144 722 280 1140 153 152 311 258 495 333 344 141 692 104 787
-83 27 -52 39 -137 29 -209 -23 -164 -167 -333 -363 -423 -186 -86 -375 -65
-464 52 -24 32 -28 46 -28 104 0 63 3 72 41 126 23 32 61 73 85 92 42 31 61
61 41 61 -21 0 -120 -82 -156 -129 -88 -116 -87 -230 1 -313 15 -15 59 -41 97
-59 60 -28 83 -33 170 -37 123 -5 204 12 320 67 239 112 376 309 364 520 -10
172 -112 284 -305 337 -56 15 -289 28 -343 18z"/>
<path d="M2155 2533 c-62 -15 -75 -84 -24 -127 38 -32 89 -34 130 -5 74 53 -9
156 -106 132z"/>
</g>
</svg>
